<mxfile host="app.diagrams.net" modified="2024-06-19T21:54:56.321Z" agent="Mozilla/5.0 (Windows NT 10.0; Win64; x64) AppleWebKit/537.36 (KHTML, like Gecko) Chrome/126.0.0.0 Safari/537.36" etag="FKQ8e0k3bcpuVze9KEvR" version="24.5.5" type="github">
  <diagram id="N9DCXovEmnzSZy1T3L1-" name="Page-1">
    <mxGraphModel dx="1050" dy="557" grid="1" gridSize="10" guides="1" tooltips="1" connect="1" arrows="1" fold="1" page="1" pageScale="1" pageWidth="850" pageHeight="1100" math="0" shadow="0">
      <root>
        <mxCell id="0" />
        <mxCell id="1" parent="0" />
        <mxCell id="jEa55PPdiWMslZc-wKtv-2" value="Clients" style="rounded=0;whiteSpace=wrap;html=1;" parent="1" vertex="1">
          <mxGeometry x="470" y="40" width="120" height="60" as="geometry" />
        </mxCell>
        <mxCell id="jEa55PPdiWMslZc-wKtv-4" value="&lt;div&gt;Web reverse-proxy&lt;/div&gt;&lt;div&gt;(nginx)&lt;br&gt;&lt;/div&gt;" style="ellipse;whiteSpace=wrap;html=1;" parent="1" vertex="1">
          <mxGeometry x="280" y="143" width="120" height="80" as="geometry" />
        </mxCell>
        <mxCell id="jEa55PPdiWMslZc-wKtv-5" value="&lt;div&gt;Web reverse-proxy&lt;/div&gt;&lt;div&gt;(nginx)&lt;br&gt;&lt;/div&gt;" style="ellipse;whiteSpace=wrap;html=1;" parent="1" vertex="1">
          <mxGeometry x="650" y="143" width="120" height="80" as="geometry" />
        </mxCell>
        <mxCell id="jEa55PPdiWMslZc-wKtv-7" value="" style="endArrow=classic;html=1;rounded=0;exitX=0.5;exitY=1;exitDx=0;exitDy=0;" parent="1" source="jEa55PPdiWMslZc-wKtv-26" target="jEa55PPdiWMslZc-wKtv-4" edge="1">
          <mxGeometry width="50" height="50" relative="1" as="geometry">
            <mxPoint x="340" y="280" as="sourcePoint" />
            <mxPoint x="540" y="460" as="targetPoint" />
          </mxGeometry>
        </mxCell>
        <mxCell id="jEa55PPdiWMslZc-wKtv-9" value="" style="endArrow=classic;html=1;rounded=0;exitX=0.5;exitY=1;exitDx=0;exitDy=0;" parent="1" source="jEa55PPdiWMslZc-wKtv-28" target="jEa55PPdiWMslZc-wKtv-5" edge="1">
          <mxGeometry width="50" height="50" relative="1" as="geometry">
            <mxPoint x="710" y="280" as="sourcePoint" />
            <mxPoint x="540" y="460" as="targetPoint" />
          </mxGeometry>
        </mxCell>
        <mxCell id="jEa55PPdiWMslZc-wKtv-10" value="&lt;div&gt;srv-application&lt;/div&gt;" style="ellipse;whiteSpace=wrap;html=1;" parent="1" vertex="1">
          <mxGeometry x="280" y="261" width="120" height="80" as="geometry" />
        </mxCell>
        <mxCell id="jEa55PPdiWMslZc-wKtv-11" value="&lt;div&gt;srv-application&lt;/div&gt;" style="ellipse;whiteSpace=wrap;html=1;" parent="1" vertex="1">
          <mxGeometry x="649" y="261" width="120" height="80" as="geometry" />
        </mxCell>
        <mxCell id="jEa55PPdiWMslZc-wKtv-12" value="" style="endArrow=classic;html=1;rounded=0;" parent="1" source="jEa55PPdiWMslZc-wKtv-4" target="jEa55PPdiWMslZc-wKtv-11" edge="1">
          <mxGeometry width="50" height="50" relative="1" as="geometry">
            <mxPoint x="490" y="283" as="sourcePoint" />
            <mxPoint x="540" y="233" as="targetPoint" />
          </mxGeometry>
        </mxCell>
        <mxCell id="jEa55PPdiWMslZc-wKtv-13" value="" style="endArrow=classic;html=1;rounded=0;" parent="1" source="jEa55PPdiWMslZc-wKtv-4" target="jEa55PPdiWMslZc-wKtv-10" edge="1">
          <mxGeometry width="50" height="50" relative="1" as="geometry">
            <mxPoint x="490" y="283" as="sourcePoint" />
            <mxPoint x="540" y="233" as="targetPoint" />
          </mxGeometry>
        </mxCell>
        <mxCell id="jEa55PPdiWMslZc-wKtv-14" value="" style="endArrow=classic;html=1;rounded=0;" parent="1" source="jEa55PPdiWMslZc-wKtv-5" target="jEa55PPdiWMslZc-wKtv-11" edge="1">
          <mxGeometry width="50" height="50" relative="1" as="geometry">
            <mxPoint x="490" y="283" as="sourcePoint" />
            <mxPoint x="540" y="233" as="targetPoint" />
          </mxGeometry>
        </mxCell>
        <mxCell id="jEa55PPdiWMslZc-wKtv-15" value="" style="endArrow=classic;html=1;rounded=0;" parent="1" source="jEa55PPdiWMslZc-wKtv-5" target="jEa55PPdiWMslZc-wKtv-10" edge="1">
          <mxGeometry width="50" height="50" relative="1" as="geometry">
            <mxPoint x="490" y="283" as="sourcePoint" />
            <mxPoint x="540" y="233" as="targetPoint" />
          </mxGeometry>
        </mxCell>
        <mxCell id="jEa55PPdiWMslZc-wKtv-16" value="&lt;div&gt;srv-bdd&lt;/div&gt;&lt;div&gt;(mysql)&lt;br&gt;&lt;/div&gt;" style="ellipse;whiteSpace=wrap;html=1;" parent="1" vertex="1">
          <mxGeometry x="280" y="383" width="120" height="80" as="geometry" />
        </mxCell>
        <mxCell id="jEa55PPdiWMslZc-wKtv-17" value="&lt;div&gt;srv-bdd&lt;/div&gt;&lt;div&gt;(mysql)&lt;br&gt;&lt;/div&gt;" style="ellipse;whiteSpace=wrap;html=1;" parent="1" vertex="1">
          <mxGeometry x="650" y="383" width="120" height="80" as="geometry" />
        </mxCell>
        <mxCell id="jEa55PPdiWMslZc-wKtv-18" value="" style="endArrow=classic;html=1;rounded=0;" parent="1" source="jEa55PPdiWMslZc-wKtv-10" target="jEa55PPdiWMslZc-wKtv-16" edge="1">
          <mxGeometry width="50" height="50" relative="1" as="geometry">
            <mxPoint x="490" y="231" as="sourcePoint" />
            <mxPoint x="540" y="181" as="targetPoint" />
          </mxGeometry>
        </mxCell>
        <mxCell id="jEa55PPdiWMslZc-wKtv-19" value="" style="endArrow=classic;html=1;rounded=0;" parent="1" source="jEa55PPdiWMslZc-wKtv-10" target="jEa55PPdiWMslZc-wKtv-17" edge="1">
          <mxGeometry width="50" height="50" relative="1" as="geometry">
            <mxPoint x="490" y="231" as="sourcePoint" />
            <mxPoint x="540" y="181" as="targetPoint" />
          </mxGeometry>
        </mxCell>
        <mxCell id="jEa55PPdiWMslZc-wKtv-20" value="" style="endArrow=classic;html=1;rounded=0;" parent="1" source="jEa55PPdiWMslZc-wKtv-11" target="jEa55PPdiWMslZc-wKtv-16" edge="1">
          <mxGeometry width="50" height="50" relative="1" as="geometry">
            <mxPoint x="490" y="231" as="sourcePoint" />
            <mxPoint x="540" y="181" as="targetPoint" />
          </mxGeometry>
        </mxCell>
        <mxCell id="jEa55PPdiWMslZc-wKtv-21" value="" style="endArrow=classic;html=1;rounded=0;" parent="1" source="jEa55PPdiWMslZc-wKtv-11" target="jEa55PPdiWMslZc-wKtv-17" edge="1">
          <mxGeometry width="50" height="50" relative="1" as="geometry">
            <mxPoint x="490" y="231" as="sourcePoint" />
            <mxPoint x="540" y="181" as="targetPoint" />
          </mxGeometry>
        </mxCell>
        <mxCell id="jEa55PPdiWMslZc-wKtv-23" value="" style="endArrow=classic;startArrow=classic;html=1;rounded=0;dashed=1;" parent="1" source="jEa55PPdiWMslZc-wKtv-16" target="jEa55PPdiWMslZc-wKtv-17" edge="1">
          <mxGeometry width="50" height="50" relative="1" as="geometry">
            <mxPoint x="490" y="193" as="sourcePoint" />
            <mxPoint x="540" y="143" as="targetPoint" />
          </mxGeometry>
        </mxCell>
        <mxCell id="z4fGwecKXDKpAX6rUL5K-4" style="edgeStyle=none;rounded=0;orthogonalLoop=1;jettySize=auto;html=1;exitX=1;exitY=1;exitDx=0;exitDy=0;entryX=0;entryY=0;entryDx=0;entryDy=0;" edge="1" parent="1" source="jEa55PPdiWMslZc-wKtv-26" target="jEa55PPdiWMslZc-wKtv-5">
          <mxGeometry relative="1" as="geometry" />
        </mxCell>
        <mxCell id="jEa55PPdiWMslZc-wKtv-26" value="&lt;div&gt;DNS&lt;/div&gt;&lt;div&gt;(bind rr)&lt;br&gt;&lt;/div&gt;" style="ellipse;whiteSpace=wrap;html=1;" parent="1" vertex="1">
          <mxGeometry x="285" y="35" width="110" height="70" as="geometry" />
        </mxCell>
        <mxCell id="jEa55PPdiWMslZc-wKtv-27" value="" style="endArrow=classic;html=1;rounded=0;" parent="1" source="jEa55PPdiWMslZc-wKtv-2" target="jEa55PPdiWMslZc-wKtv-26" edge="1">
          <mxGeometry width="50" height="50" relative="1" as="geometry">
            <mxPoint x="485" y="460" as="sourcePoint" />
            <mxPoint x="535" y="410" as="targetPoint" />
          </mxGeometry>
        </mxCell>
        <mxCell id="z4fGwecKXDKpAX6rUL5K-5" style="edgeStyle=none;rounded=0;orthogonalLoop=1;jettySize=auto;html=1;exitX=0;exitY=1;exitDx=0;exitDy=0;entryX=1;entryY=0;entryDx=0;entryDy=0;" edge="1" parent="1" source="jEa55PPdiWMslZc-wKtv-28" target="jEa55PPdiWMslZc-wKtv-4">
          <mxGeometry relative="1" as="geometry" />
        </mxCell>
        <mxCell id="jEa55PPdiWMslZc-wKtv-28" value="&lt;div&gt;DNS&lt;/div&gt;&lt;div&gt;(bind rr)&lt;br&gt;&lt;/div&gt;" style="ellipse;whiteSpace=wrap;html=1;" parent="1" vertex="1">
          <mxGeometry x="654" y="30" width="110" height="70" as="geometry" />
        </mxCell>
        <mxCell id="jEa55PPdiWMslZc-wKtv-33" value="" style="endArrow=classic;html=1;rounded=0;" parent="1" source="jEa55PPdiWMslZc-wKtv-2" target="jEa55PPdiWMslZc-wKtv-28" edge="1">
          <mxGeometry width="50" height="50" relative="1" as="geometry">
            <mxPoint x="485" y="450" as="sourcePoint" />
            <mxPoint x="535" y="400" as="targetPoint" />
          </mxGeometry>
        </mxCell>
      </root>
    </mxGraphModel>
  </diagram>
</mxfile>
